<svg width="12" height="7" viewBox="0 0 12 7" fill="none" xmlns="http://www.w3.org/2000/svg">
<path d="M0.21934 0.21934C0.359965 0.0788894 0.550589 0 0.74934 0C0.948091 0 1.13871 0.0788894 1.27934 0.21934L5.74934 4.68934L10.2193 0.21934C10.3615 0.0868598 10.5496 0.0147369 10.7439 0.0181651C10.9382 0.0215933 11.1235 0.100305 11.261 0.237718C11.3984 0.375131 11.4771 0.560516 11.4805 0.754817C11.4839 0.949119 11.4118 1.13717 11.2793 1.27934L6.62934 5.92934C6.39399 6.15901 6.07818 6.28756 5.74934 6.28756C5.4205 6.28756 5.10469 6.15901 4.86934 5.92934L0.21934 1.27934C0.0788896 1.13871 0 0.948091 0 0.74934C0 0.550589 0.0788896 0.359965 0.21934 0.21934Z" fill="#818C99"/>
</svg>
