<svg width="40" height="25" viewBox="0 0 40 25" fill="none" xmlns="http://www.w3.org/2000/svg">
<path d="M14 19.5H28C28.5304 19.5 29.0391 19.2893 29.4142 18.9142C29.7893 18.5391 30 18.0304 30 17.5V7.5C30 6.96957 29.7893 6.46086 29.4142 6.08579C29.0391 5.71071 28.5304 5.5 28 5.5H12C11.4696 5.5 10.9609 5.71071 10.5858 6.08579C10.2107 6.46086 10 6.96957 10 7.5V17.5C10 18.0304 10.2107 18.5391 10.5858 18.9142C10.9609 19.2893 11.4696 19.5 12 19.5H14V16.5H13C12.7348 16.5 12.4804 16.3946 12.2929 16.2071C12.1054 16.0196 12 15.7652 12 15.5C12 15.2348 12.1054 14.9804 12.2929 14.7929C12.4804 14.6054 12.7348 14.5 13 14.5H14V12.5H13C12.7348 12.5 12.4804 12.3946 12.2929 12.2071C12.1054 12.0196 12 11.7652 12 11.5V10.5C12 10.2348 12.1054 9.98043 12.2929 9.79289C12.4804 9.60536 12.7348 9.5 13 9.5H15C15.2652 9.5 15.5196 9.60536 15.7071 9.79289C15.8946 9.98043 16 10.2348 16 10.5V11.5C16 11.7652 15.8946 12.0196 15.7071 12.2071C15.5196 12.3946 15.2652 12.5 15 12.5H14V14.5H27C27.2652 14.5 27.5196 14.6054 27.7071 14.7929C27.8946 14.9804 28 15.2348 28 15.5C28 15.7652 27.8946 16.0196 27.7071 16.2071C27.5196 16.3946 27.2652 16.5 27 16.5H14V19.5Z" fill="#3D3D3D"/>
</svg>
