<svg width="32" height="32" viewBox="0 0 32 32" fill="none" xmlns="http://www.w3.org/2000/svg">
<rect width="32" height="32" rx="4" fill="white"/>
<g clip-path="url(#clip0_150_729)">
<path d="M15.5992 19.8798C15.4294 20.0396 15.2058 20.1299 14.9726 20.1331C14.7435 20.1292 14.5243 20.0387 14.3593 19.8798L9.79925 15.3598C9.63559 15.1949 9.54375 14.9721 9.54375 14.7398C9.54375 14.5075 9.63559 14.2846 9.79925 14.1198L10.6659 13.2264C10.7466 13.1438 10.8431 13.0781 10.9495 13.0333C11.056 12.9884 11.1704 12.9653 11.2859 12.9653C11.4014 12.9653 11.5158 12.9884 11.6223 13.0333C11.7288 13.0781 11.8252 13.1438 11.9059 13.2264L14.9326 16.2264L20.7859 10.4398C20.8651 10.3575 20.9605 10.2925 21.066 10.2489C21.1716 10.2053 21.2851 10.184 21.3992 10.1864C21.5155 10.1838 21.631 10.2049 21.7387 10.2484C21.8465 10.292 21.9442 10.3571 22.0259 10.4398L22.9326 11.3331C23.0922 11.4974 23.1815 11.7174 23.1815 11.9464C23.1815 12.1755 23.0922 12.3955 22.9326 12.5598L15.5992 19.8798L25.4926 22.6664C29.1726 17.4131 27.7326 6.85311 27.6793 6.39978C27.6525 6.23116 27.578 6.07372 27.4646 5.94612C27.3512 5.81852 27.2036 5.72609 27.0393 5.67978L16.2393 1.99978C16.0818 1.95971 15.9167 1.95971 15.7592 1.99978L4.95925 5.67978C4.79492 5.72609 4.64731 5.81852 4.53388 5.94612C4.42046 6.07372 4.34597 6.23116 4.31925 6.39978C4.31925 6.85311 2.82592 17.4131 6.50592 22.6664C8.76185 25.8919 12.0565 28.2452 15.8393 29.3331H15.9993H16.1992C19.982 28.2452 23.2767 25.8919 25.5326 22.6664L15.5992 19.8798Z" fill="#BAC1CA"/>
</g>

<defs>
<clipPath id="clip0_150_729">
<rect width="32" height="32" fill="white"/>
</clipPath>
</defs>
</svg>
