<svg width="100" height="24" viewBox="0 0 100 24" fill="none" xmlns="http://www.w3.org/2000/svg">
<path d="M14.14 18.9396V16.2696C14.1387 16.1222 14.0982 15.9778 14.0226 15.8513C13.9471 15.7248 13.8392 15.6206 13.71 15.5496L11.35 14.2096C11.2202 14.1369 11.0738 14.0987 10.925 14.0987C10.7762 14.0987 10.6299 14.1369 10.5 14.2096L8.14001 15.5496C8.0122 15.6222 7.90539 15.7267 7.83003 15.8529C7.75466 15.9791 7.71331 16.1226 7.71 16.2696V18.9396C7.70951 19.0887 7.74918 19.2351 7.82485 19.3636C7.90051 19.492 8.00938 19.5977 8.14001 19.6696L10.5 21.0096C10.6299 21.0823 10.7762 21.1205 10.925 21.1205C11.0738 21.1205 11.2202 21.0823 11.35 21.0096L13.71 19.6696C13.8393 19.5961 13.947 19.4901 14.0224 19.362C14.0979 19.2339 14.1384 19.0882 14.14 18.9396ZM21.85 18.9396V16.2696C21.8487 16.1222 21.8082 15.9778 21.7326 15.8513C21.6571 15.7248 21.5492 15.6206 21.42 15.5496L19.06 14.2096C18.9289 14.1351 18.7808 14.0959 18.63 14.0959C18.4792 14.0959 18.3311 14.1351 18.2 14.2096L15.84 15.5496C15.7122 15.6222 15.6054 15.7267 15.53 15.8529C15.4547 15.9791 15.4133 16.1226 15.41 16.2696V18.9396C15.4095 19.0887 15.4492 19.2351 15.5248 19.3636C15.6005 19.492 15.7094 19.5977 15.84 19.6696L18.2 21.0096C18.3311 21.0841 18.4792 21.1233 18.63 21.1233C18.7808 21.1233 18.9289 21.0841 19.06 21.0096L21.42 19.6696C21.5493 19.5961 21.657 19.4901 21.7324 19.362C21.8079 19.2339 21.8484 19.0882 21.85 18.9396ZM10.3 12.3996V9.72959C10.3023 9.57882 10.2635 9.43027 10.1877 9.29989C10.112 9.16952 10.0021 9.06224 9.87 8.98959L7.5 7.65959C7.36894 7.58508 7.22077 7.5459 7.07 7.5459C6.91924 7.5459 6.77107 7.58508 6.64 7.65959L4.29 8.99959C4.16075 9.07304 4.05302 9.17911 3.97757 9.3072C3.90212 9.43529 3.86158 9.58094 3.86 9.72959V12.3996C3.85951 12.5487 3.89918 12.6951 3.97485 12.8236C4.05051 12.952 4.15938 13.0577 4.29 13.1296L6.65 14.4696C6.78107 14.5441 6.92924 14.5833 7.08 14.5833C7.23077 14.5833 7.37894 14.5441 7.51 14.4696L9.87 13.1396C9.99926 13.0661 10.107 12.9601 10.1824 12.832C10.2579 12.7039 10.2984 12.5582 10.3 12.4096V12.3996ZM18 12.3996V9.72959C18.0005 9.58051 17.9608 9.43405 17.8852 9.30559C17.8095 9.17714 17.7006 9.07144 17.57 8.99959L15.2 7.65959C15.0689 7.58508 14.9208 7.5459 14.77 7.5459C14.6192 7.5459 14.4711 7.58508 14.34 7.65959L11.99 8.99959C11.8608 9.07304 11.753 9.17911 11.6776 9.3072C11.6021 9.43529 11.5616 9.58094 11.56 9.72959V12.3996C11.5595 12.5487 11.5992 12.6951 11.6748 12.8236C11.7505 12.952 11.8594 13.0577 11.99 13.1296L14.35 14.4696C14.4811 14.5441 14.6292 14.5833 14.78 14.5833C14.9308 14.5833 15.0789 14.5441 15.21 14.4696L17.57 13.1296C17.6978 13.057 17.8046 12.9525 17.88 12.8263C17.9553 12.7001 17.9967 12.5565 18 12.4096V12.3996ZM6.44 18.9396V16.2696C6.43871 16.1222 6.3982 15.9778 6.32263 15.8513C6.24706 15.7248 6.13915 15.6206 6.01 15.5496L3.65 14.1996C3.51894 14.1251 3.37077 14.0859 3.22 14.0859C3.06924 14.0859 2.92107 14.1251 2.79 14.1996L0.430005 15.5496C0.302195 15.6222 0.195393 15.7267 0.120028 15.8529C0.0446624 15.9791 0.00330874 16.1226 4.53196e-06 16.2696V18.9396C-0.000488049 19.0887 0.039182 19.2351 0.114847 19.3636C0.190511 19.492 0.299377 19.5977 0.430005 19.6696L2.79 21.0096C2.92107 21.0841 3.06924 21.1233 3.22 21.1233C3.37077 21.1233 3.51894 21.0841 3.65 21.0096L6 19.6696C6.12926 19.5961 6.23699 19.4901 6.31244 19.362C6.38789 19.2339 6.42843 19.0882 6.43 18.9396H6.44Z" fill="#08A835"/>
<path d="M40.4809 5.63002V3.18002H30.9409V19.41H33.6609V12.68H39.8409V10.23H33.6609V5.63002H40.4809ZM66.6409 12.35V19.41H69.2109V11.71C69.2109 9.91002 68.2909 6.62002 64.3609 6.62002C61.2909 6.62002 60.1109 8.47002 60.1109 8.47002L59.9109 6.85002H57.6409V19.41H60.2409V13.01C60.2409 10.21 61.7209 8.90002 63.7209 8.90002C66.0909 8.90002 66.6409 10.78 66.6409 12.35ZM94.7409 18.33L100.001 6.83002H97.3209L93.4909 15.63L89.4209 6.83002H86.5909L92.1209 18.47C92.0009 18.75 91.2609 20.44 90.7209 20.98C90.2509 21.44 89.5909 21.62 88.8109 21.62L89.1909 23.8C89.7616 23.8174 90.33 23.7202 90.8625 23.5141C91.395 23.308 91.8807 22.9971 92.2909 22.6C93.4909 21.4 94.4909 18.88 94.4909 18.88L94.7109 18.41H94.7809L94.7409 18.33ZM49.0009 6.65002H48.3009C46.6009 6.65002 44.9709 7.31002 43.7809 8.48002C43.1874 9.05738 42.7153 9.74761 42.3924 10.5101C42.0696 11.2726 41.9025 12.092 41.9009 12.92V13.39C41.9009 15.06 42.5809 16.65 43.7809 17.83C44.9907 19.0071 46.6131 19.6639 48.3009 19.66H49.0009C50.6909 19.66 52.3109 19 53.5109 17.83C54.1045 17.2527 54.5766 16.5624 54.8994 15.7999C55.2223 15.0374 55.3894 14.2181 55.3909 13.39V12.92C55.3909 11.25 54.7109 9.66002 53.5109 8.48002C52.3037 7.30537 50.6854 6.64871 49.0009 6.65002ZM52.8009 13.31C52.8009 14.37 52.3709 15.39 51.6009 16.14C50.8305 16.8911 49.7969 17.311 48.7209 17.31H48.5909C47.5115 17.3137 46.4738 16.8935 45.7009 16.14C45.3242 15.7713 45.0249 15.331 44.8205 14.845C44.6162 14.3591 44.5109 13.8372 44.5109 13.31V13C44.5109 11.94 44.9409 10.92 45.7109 10.17C46.4789 9.42134 47.5085 9.00161 48.5809 9.00002H48.7009C49.7809 9.00002 50.8109 9.42002 51.5809 10.17C52.3409 10.92 52.7809 11.94 52.7809 13V13.31H52.8009ZM82.2209 2.38002V8.00002C81.0808 7.1126 79.6757 6.63368 78.2309 6.64002H77.8509C76.1509 6.64002 74.5309 7.30002 73.3309 8.47002C72.7374 9.04738 72.2653 9.73761 71.9424 10.5001C71.6196 11.2626 71.4525 12.082 71.4509 12.91V13.38C71.4509 15.05 72.1309 16.64 73.3309 17.82C74.5407 18.9971 76.1631 19.6539 77.8509 19.65H78.2309C79.8409 19.65 81.3909 19.06 82.5809 17.99L82.7809 19.38H84.8409V2.38002H82.2209ZM82.3509 13.31C82.3509 14.37 81.9209 15.39 81.1509 16.14C80.3805 16.8911 79.3469 17.311 78.2709 17.31H78.1409C77.065 17.311 76.0313 16.8911 75.2609 16.14C74.8824 15.7721 74.5812 15.3322 74.3751 14.8462C74.1691 14.3602 74.0622 13.8379 74.0609 13.31V13C74.0609 11.94 74.4909 10.92 75.2609 10.17C76.0313 9.41892 77.065 8.999 78.1409 9.00002H78.2709C79.3509 9.00002 80.3909 9.42002 81.1509 10.17C81.9209 10.92 82.3509 11.94 82.3509 13V13.31ZM14.1409 5.85002V3.18002C14.1414 3.03094 14.1018 2.88448 14.0261 2.75602C13.9504 2.62757 13.8416 2.52187 13.7109 2.45002L11.3509 1.10002C11.2199 1.02551 11.0717 0.986328 10.9209 0.986328C10.7702 0.986328 10.622 1.02551 10.4909 1.10002L8.14094 2.45002C8.01169 2.52347 7.90396 2.62954 7.82851 2.75763C7.75306 2.88572 7.71252 3.03137 7.71094 3.18002V5.85002C7.71045 5.9991 7.75012 6.14557 7.82578 6.27402C7.90145 6.40247 8.01031 6.50818 8.14094 6.58002L10.4909 7.91002C10.622 7.98454 10.7702 8.02371 10.9209 8.02371C11.0717 8.02371 11.2199 7.98454 11.3509 7.91002L13.7109 6.58002C13.8402 6.50657 13.9479 6.40051 14.0234 6.27241C14.0988 6.14432 14.1394 5.99868 14.1409 5.85002Z" fill="black"/>
</svg>
