<svg width="98" height="34" viewBox="0 0 98 34" fill="none" xmlns="http://www.w3.org/2000/svg">
<g filter="url(#filter0_d_150_1019)">
<rect x="5" y="5" width="24" height="24" rx="3" fill="white" shape-rendering="crispEdges"/>
<path d="M22.1572 14.4789C22.697 15.583 22.8681 16.8312 22.6454 18.0398C22.4228 19.2485 21.8181 20.3537 20.9203 21.193C20.0226 22.0323 18.8792 22.5614 17.6583 22.7023C16.4374 22.8432 15.2036 22.5886 14.1382 21.9759C13.0729 21.3632 12.2323 20.4247 11.7402 19.2986C11.248 18.1724 11.1303 16.9181 11.4043 15.72C11.6783 14.522 12.3295 13.4435 13.2622 12.6433C14.195 11.843 15.3599 11.3632 16.5857 11.2745L17.93 9.18013C16.1392 8.96713 14.3294 9.37529 12.8034 10.3364C11.2773 11.2975 10.1273 12.7533 9.54574 14.4604C8.96413 16.1675 8.9861 18.0226 9.60799 19.7155C10.2299 21.4084 11.414 22.8365 12.9624 23.7612C14.5108 24.6859 16.3297 25.051 18.115 24.7957C19.9003 24.5403 21.5439 23.6799 22.771 22.3583C23.9982 21.0366 24.7344 19.3338 24.8568 17.5344C24.9792 15.7351 24.4803 13.9483 23.4435 12.4726L22.1572 14.4789Z" fill="#00458D"/>
<path d="M17 13.5313C16.0827 13.5305 15.2018 13.8905 14.5475 14.5334C14.2262 14.8493 13.9709 15.2259 13.7965 15.6413C13.622 16.0567 13.5318 16.5026 13.5312 16.9531H15.5356C15.5354 16.6669 15.6213 16.3873 15.7822 16.1506C15.9438 15.9125 16.1721 15.7272 16.4384 15.6181C16.7058 15.5097 16.9989 15.4815 17.282 15.5371C17.5651 15.5927 17.8258 15.7297 18.0322 15.9313C18.2362 16.1325 18.3756 16.3901 18.4325 16.6709C18.4892 16.9514 18.4601 17.2425 18.3491 17.5063C18.2377 17.7709 18.05 17.9964 17.81 18.1541C17.5685 18.3134 17.2855 18.3981 16.9962 18.3978V20.375C17.9136 20.3757 18.7945 20.0158 19.4487 19.3728C19.7705 19.0573 20.0261 18.6808 20.2005 18.2653C20.375 17.8498 20.4649 17.4037 20.4649 16.9531C20.4649 16.5025 20.375 16.0564 20.2005 15.6409C20.0261 15.2255 19.7705 14.849 19.4487 14.5334C18.7954 13.8914 17.916 13.5315 17 13.5313Z" fill="#FFCB02"/>
</g>
<g filter="url(#filter1_d_150_1019)">
<rect x="37" y="5" width="24" height="24" rx="3" fill="white" shape-rendering="crispEdges"/>
<path d="M51.5601 12.4307H46.4395V21.5694H51.5601V12.4307Z" fill="#FF5F00"/>
<path d="M46.7644 17C46.7651 16.1195 46.966 15.2506 47.3517 14.459C47.7374 13.6675 48.2979 12.9739 48.9909 12.4306C48.1335 11.7565 47.1037 11.3372 46.0192 11.2207C44.9348 11.1043 43.8394 11.2952 42.8584 11.7719C41.8773 12.2485 41.0502 12.9916 40.4715 13.9161C39.8928 14.8406 39.5859 15.9093 39.5859 17C39.5859 18.0907 39.8928 19.1594 40.4715 20.0839C41.0502 21.0084 41.8773 21.7515 42.8584 22.2281C43.8394 22.7048 44.9348 22.8957 46.0192 22.7793C47.1037 22.6628 48.1335 22.2435 48.9909 21.5694C48.2967 21.0273 47.7353 20.3339 47.3494 19.5421C46.9636 18.7503 46.7635 17.8808 46.7644 17Z" fill="#EC001B"/>
<path d="M58.4681 17C58.4601 18.0935 58.1459 19.163 57.5612 20.0871C56.9765 21.0112 56.1447 21.7531 55.16 22.2288C54.1753 22.7044 53.077 22.8947 51.9897 22.7782C50.9023 22.6616 49.8694 22.2429 49.0078 21.5694C49.7014 21.0266 50.2623 20.3332 50.648 19.5415C51.0338 18.7498 51.2342 17.8807 51.2342 17C51.2342 16.1193 51.0338 15.2502 50.648 14.4585C50.2623 13.6669 49.7014 12.9734 49.0078 12.4306C50.0374 11.6238 51.3082 11.186 52.6163 11.1875C55.8516 11.1875 58.4681 13.8031 58.4681 17Z" fill="#F89E1B"/>
</g>
<g filter="url(#filter2_d_150_1019)">
<rect x="69" y="5" width="24" height="24" rx="3" fill="white" shape-rendering="crispEdges"/>
<path d="M81.375 15.7812C81.3628 16.76 82.2469 17.3066 82.9134 17.6319C83.5978 17.9656 83.8284 18.1794 83.8256 18.4756C83.82 18.9322 83.2791 19.1319 82.7737 19.1412C81.8906 19.1544 81.3769 18.9022 80.9691 18.7119L80.6503 20.2016C81.06 20.3891 81.8184 20.5559 82.605 20.5625C84.4509 20.5625 85.6584 19.6503 85.665 18.2356C85.6716 16.4412 83.1844 16.3419 83.2022 15.5394C83.2078 15.2966 83.4394 15.0369 83.9475 14.9703C84.5419 14.9133 85.1407 15.0186 85.68 15.275L85.9894 13.8331C85.4627 13.6352 84.9048 13.533 84.3422 13.5312C82.605 13.5312 81.3834 14.4556 81.375 15.7812ZM88.9575 13.6569C88.7967 13.655 88.6391 13.7017 88.5053 13.7908C88.3715 13.88 88.2677 14.0075 88.2075 14.1566L85.5703 20.4584H87.4144L87.7828 19.4375H90.0328L90.2456 20.4528H91.875L90.4566 13.655L88.9575 13.6569ZM89.2153 15.4944L89.7478 18.0481H88.2881L89.2153 15.4944ZM79.1372 13.655L77.6831 20.4566H79.4409L80.8941 13.655H79.1372ZM76.5375 13.655L74.7075 18.2844L73.9688 14.3488C73.9386 14.1554 73.8402 13.9792 73.6915 13.852C73.5428 13.7248 73.3535 13.6549 73.1578 13.655H70.1672L70.125 13.8528C70.7391 13.9869 71.4375 14.2016 71.8584 14.4312C72.1172 14.5728 72.1875 14.6956 72.2812 15.0312L73.6781 20.4566H75.5353L78.3825 13.655H76.5375Z" fill="#1A1F71"/>
</g>
<defs>
<filter id="filter0_d_150_1019" x="1" y="2" width="32" height="32" filterUnits="userSpaceOnUse" color-interpolation-filters="sRGB">
<feFlood flood-opacity="0" result="BackgroundImageFix"/>
<feColorMatrix in="SourceAlpha" type="matrix" values="0 0 0 0 0 0 0 0 0 0 0 0 0 0 0 0 0 0 127 0" result="hardAlpha"/>
<feOffset dy="1"/>
<feGaussianBlur stdDeviation="2"/>
<feComposite in2="hardAlpha" operator="out"/>
<feColorMatrix type="matrix" values="0 0 0 0 0.792157 0 0 0 0 0.811765 0 0 0 0 0.839216 0 0 0 1 0"/>
<feBlend mode="normal" in2="BackgroundImageFix" result="effect1_dropShadow_150_1019"/>
<feBlend mode="normal" in="SourceGraphic" in2="effect1_dropShadow_150_1019" result="shape"/>
</filter>
<filter id="filter1_d_150_1019" x="33" y="2" width="32" height="32" filterUnits="userSpaceOnUse" color-interpolation-filters="sRGB">
<feFlood flood-opacity="0" result="BackgroundImageFix"/>
<feColorMatrix in="SourceAlpha" type="matrix" values="0 0 0 0 0 0 0 0 0 0 0 0 0 0 0 0 0 0 127 0" result="hardAlpha"/>
<feOffset dy="1"/>
<feGaussianBlur stdDeviation="2"/>
<feComposite in2="hardAlpha" operator="out"/>
<feColorMatrix type="matrix" values="0 0 0 0 0.792157 0 0 0 0 0.811765 0 0 0 0 0.839216 0 0 0 1 0"/>
<feBlend mode="normal" in2="BackgroundImageFix" result="effect1_dropShadow_150_1019"/>
<feBlend mode="normal" in="SourceGraphic" in2="effect1_dropShadow_150_1019" result="shape"/>
</filter>
<filter id="filter2_d_150_1019" x="65" y="2" width="32" height="32" filterUnits="userSpaceOnUse" color-interpolation-filters="sRGB">
<feFlood flood-opacity="0" result="BackgroundImageFix"/>
<feColorMatrix in="SourceAlpha" type="matrix" values="0 0 0 0 0 0 0 0 0 0 0 0 0 0 0 0 0 0 127 0" result="hardAlpha"/>
<feOffset dy="1"/>
<feGaussianBlur stdDeviation="2"/>
<feComposite in2="hardAlpha" operator="out"/>
<feColorMatrix type="matrix" values="0 0 0 0 0.792157 0 0 0 0 0.811765 0 0 0 0 0.839216 0 0 0 1 0"/>
<feBlend mode="normal" in2="BackgroundImageFix" result="effect1_dropShadow_150_1019"/>
<feBlend mode="normal" in="SourceGraphic" in2="effect1_dropShadow_150_1019" result="shape"/>
</filter>
</defs>
</svg>
